<?xml version="1.0" encoding="UTF-8" standalone="no"?>
<!DOCTYPE svg PUBLIC "-//W3C//DTD SVG 1.1//EN" "http://www.w3.org/Graphics/SVG/1.1/DTD/svg11.dtd">
<svg width="100%" height="100%" viewBox="0 0 128 128" version="1.1" xmlns="http://www.w3.org/2000/svg" xmlns:xlink="http://www.w3.org/1999/xlink" xml:space="preserve" xmlns:serif="http://www.serif.com/" style="fill-rule:evenodd;clip-rule:evenodd;stroke-linejoin:round;stroke-miterlimit:2;">
    <g transform="matrix(1,0,0,1,-178,0)">
        <rect id="Artboard2" x="178" y="0" width="128" height="128" style="fill:none;"/>
        <g id="Artboard21" serif:id="Artboard2">
            <g transform="matrix(1,0,0,1,1.558966,0)">
                <path d="M240.441,19.955C264.75,19.955 284.486,39.691 284.486,64C284.486,88.309 264.75,108.045 240.441,108.045C216.132,108.045 196.396,88.309 196.396,64C196.396,39.691 216.132,19.955 240.441,19.955ZM240.441,41.977C252.596,41.977 262.464,51.845 262.464,64C262.464,76.155 252.596,86.023 240.441,86.023C228.286,86.023 218.418,76.155 218.418,64C218.418,51.845 228.286,41.977 240.441,41.977Z" style="fill:white;"/>
            </g>
        </g>
    </g>
</svg>
